<?xml version="1.0" encoding="UTF-8"?>
<svg width="136px" height="46px" viewBox="0 0 136 46" version="1.1" xmlns="http://www.w3.org/2000/svg" xmlns:xlink="http://www.w3.org/1999/xlink">
    <title>GOV.SALogoAR</title>
    <defs>
        <polygon id="path-1" points="0.0191456311 44.8809903 135.689049 44.8809903 135.689049 0.317883495 0.0191456311 0.317883495"></polygon>
        <path d="M0.267378641,1.9835534 C-0.158116505,3.30394175 0.561495146,4.72368932 1.8818835,5.14918447 L1.8818835,5.14918447 C3.0372233,5.52582524 4.2618835,5.0207767 4.8392233,4.00704854 L4.8392233,4.00704854 L14.8778058,4.00704854 L31.6533398,28.2559806 C31.8943107,28.6095146 32.2838252,28.7940388 32.6796117,28.7940388 L32.6796117,28.7940388 C32.9242136,28.7940388 33.1717864,28.7247184 33.3893204,28.5728738 L33.3893204,28.5728738 C33.9541165,28.1800583 34.0960583,27.4043301 33.7032427,26.8398641 L33.7032427,26.8398641 L16.558,2.05287379 C16.3236311,1.71617476 15.9407184,1.51514563 15.5313981,1.51514563 L15.5313981,1.51514563 L4.83625243,1.51514563 C4.53916505,0.989961165 4.05392233,0.574038835 3.43664078,0.372679612 L3.43664078,0.372679612 C3.17553398,0.286854369 2.91475728,0.247242718 2.65761165,0.247242718 L2.65761165,0.247242718 C1.598,0.247242718 0.61431068,0.923941748 0.267378641,1.9835534" id="path-3"></path>
        <linearGradient x1="-21.7907246%" y1="75.9803979%" x2="157.294576%" y2="75.9803979%" id="linearGradient-5">
            <stop stop-color="#1A9382" offset="0%"></stop>
            <stop stop-color="#04443D" offset="100%"></stop>
        </linearGradient>
        <linearGradient x1="50.0004804%" y1="15.6011613%" x2="50.0004804%" y2="123.962769%" id="linearGradient-6">
            <stop stop-color="#29B3B4" offset="0%"></stop>
            <stop stop-color="#0F92B5" offset="27.47%"></stop>
            <stop stop-color="#007EB5" offset="47.56%"></stop>
            <stop stop-color="#6F4B99" offset="100%"></stop>
        </linearGradient>
        <path d="M0.267378641,1.9835534 C-0.158116505,3.30394175 0.561495146,4.72368932 1.8818835,5.14918447 L1.8818835,5.14918447 C3.0372233,5.52582524 4.2618835,5.0207767 4.8392233,4.00704854 L4.8392233,4.00704854 L14.8778058,4.00704854 L31.6533398,28.2559806 C31.8943107,28.6095146 32.2838252,28.7940388 32.6796117,28.7940388 L32.6796117,28.7940388 C32.9242136,28.7940388 33.1717864,28.7247184 33.3893204,28.5728738 L33.3893204,28.5728738 C33.9541165,28.1800583 34.0960583,27.4043301 33.7032427,26.8398641 L33.7032427,26.8398641 L16.558,2.05287379 C16.3236311,1.71617476 15.9407184,1.51514563 15.5313981,1.51514563 L15.5313981,1.51514563 L4.83625243,1.51514563 C4.53916505,0.989961165 4.05392233,0.574038835 3.43664078,0.372679612 L3.43664078,0.372679612 C3.17553398,0.286854369 2.91475728,0.247242718 2.65761165,0.247242718 L2.65761165,0.247242718 C1.598,0.247242718 0.61431068,0.923941748 0.267378641,1.9835534 L0.267378641,1.9835534 Z" id="path-7"></path>
        <path d="M30.5253981,1.75413592 C30.0966019,3.07386408 30.8185243,4.49130097 32.1382524,4.91976699 L32.1382524,4.91976699 C32.4683495,5.02704854 32.8050485,5.06203883 33.1301942,5.03431068 L33.1301942,5.03431068 L44.1706214,20.995165 C44.404,21.3321942 44.7875728,21.5328932 45.1965631,21.5328932 L45.1965631,21.5328932 L51.8268932,21.5328932 L49.3141942,26.088233 L27.1016311,26.0816311 L14.6579612,8.18409709 C14.2648155,7.61864078 13.487767,7.47900971 12.9219806,7.87215534 L12.9219806,7.87215534 C12.3565243,8.26530097 12.2168932,9.04234951 12.6100388,9.60780583 L12.6100388,9.60780583 L25.4253981,28.0407573 C25.6581165,28.3758058 26.0410291,28.5758447 26.448699,28.5758447 L26.448699,28.5758447 L50.0499806,28.5827767 L50.0503107,28.5827767 C50.5045243,28.5827767 50.9227573,28.335534 51.1422718,27.9380971 L51.1422718,27.9380971 L55.0308155,20.8882136 C55.2440583,20.502 55.2371262,20.0319417 55.0129903,19.652 L55.0129903,19.652 C54.7885243,19.2717282 54.3801942,19.0386796 53.9388544,19.0386796 L53.9388544,19.0386796 L45.8501553,19.0386796 L35.1817476,3.6148932 C35.2286214,3.51619417 35.2698835,3.41353398 35.3045437,3.30658252 L35.3045437,3.30658252 C35.7330097,1.98718447 35.0107573,0.569747573 33.6910291,0.140951456 L33.6910291,0.140951456 C33.4332233,0.0571067961 33.1714563,0.0174950246 32.9143107,0.0174950246 L32.9143107,0.0174950246 C31.8553592,0.0171650485 30.8703495,0.692213592 30.5253981,1.75413592 L30.5253981,1.75413592 Z M1.36792233,1.28341748 C0.903475728,1.28341748 0.477980583,1.5408932 0.263087379,1.95186408 L0.263087379,1.95186408 C0.0475339806,2.36283495 0.0785631068,2.85930097 0.342970874,3.2408932 L0.342970874,3.2408932 L22.4076505,35.0761165 C22.6400388,35.4124854 23.0229515,35.6128544 23.4326019,35.6128544 L23.4326019,35.6128544 L32.3336699,35.6128544 C32.6320777,36.1423301 33.1222718,36.5661748 33.7461553,36.7688544 L33.7461553,36.7688544 C35.0658835,37.1979806 36.4836505,36.4757282 36.9117864,35.1556699 L36.9117864,35.1556699 C37.3405825,33.8362718 36.6183301,32.418835 35.2986019,31.9900388 L35.2986019,31.9900388 C35.0407961,31.9061942 34.7790291,31.8662524 34.5218835,31.8662524 L34.5218835,31.8662524 C33.6345825,31.8662524 32.7991068,32.3399417 32.3485243,33.1186408 L32.3485243,33.1186408 L24.0852039,33.1186408 L3.74924272,3.77730097 L17.1194951,3.77730097 C17.8077476,3.77730097 18.3662718,3.2187767 18.3662718,2.53052427 L18.3662718,2.53052427 C18.3662718,1.84194175 17.8077476,1.28341748 17.1194951,1.28341748 L17.1194951,1.28341748 L1.36792233,1.28341748 Z M22.6605049,10.4871845 C22.0943883,10.8793398 21.9534369,11.6567184 22.3455922,12.2225049 L22.3455922,12.2225049 L26.7276311,18.5478252 C26.9699223,18.8977282 27.3584466,19.0848932 27.7539029,19.0848932 L27.7539029,19.0848932 C27.998835,19.0848932 28.2464078,19.012932 28.4629515,18.8627379 L28.4629515,18.8627379 C29.0297282,18.4705825 29.1700194,17.693534 28.7778641,17.1274175 L28.7778641,17.1274175 L24.3958252,10.8020971 C24.153534,10.4528544 23.7646796,10.2653592 23.3695534,10.2653592 L23.3695534,10.2653592 C23.1246214,10.2653592 22.8773786,10.3373204 22.6605049,10.4871845 L22.6605049,10.4871845 Z" id="path-9"></path>
        <linearGradient x1="50%" y1="-21.1305636%" x2="50%" y2="78.7348157%" id="linearGradient-11">
            <stop stop-color="#29B3B4" offset="0%"></stop>
            <stop stop-color="#0F92B5" offset="43.8566811%"></stop>
            <stop stop-color="#007EB5" offset="70.9861527%"></stop>
            <stop stop-color="#6F4B99" offset="100%"></stop>
        </linearGradient>
    </defs>
    <g id="Page-1" stroke="none" stroke-width="1" fill="none" fill-rule="evenodd">
        <g id="GOV.SALogoAR">
            <path d="M28.733301,38.7041146 C28.733301,38.603435 28.7692816,38.5176097 28.8415728,38.4463087 C28.913534,38.3750078 29.0003495,38.3393573 29.1013592,38.3393573 C29.2053398,38.3393573 29.2934757,38.3750078 29.3654369,38.4463087 C29.4377282,38.5176097 29.4737087,38.603435 29.4737087,38.7041146 C29.4737087,38.8044641 29.4377282,38.8899592 29.3654369,38.9599398 C29.2934757,39.0295903 29.2053398,39.0645806 29.1013592,39.0645806 C29.0003495,39.0645806 28.913534,39.0295903 28.8415728,38.9599398 C28.7692816,38.8899592 28.733301,38.8044641 28.733301,38.7041146 L28.733301,38.7041146 Z M27.6548738,38.7041146 C27.6548738,38.603435 27.6918447,38.5176097 27.7654563,38.4463087 C27.8387379,38.3750078 27.9248932,38.3393573 28.022932,38.3393573 C28.1269126,38.3393573 28.2157087,38.3750078 28.2893204,38.4463087 C28.362932,38.5176097 28.3999029,38.603435 28.3999029,38.7041146 C28.3999029,38.8044641 28.362932,38.8899592 28.2893204,38.9599398 C28.2157087,39.0295903 28.1269126,39.0645806 28.022932,39.0645806 C27.9248932,39.0645806 27.8387379,39.0295903 27.7654563,38.9599398 C27.6918447,38.8899592 27.6548738,38.8044641 27.6548738,38.7041146 L27.6548738,38.7041146 Z M29.4265049,42.5358816 L29.4265049,41.6390078 C29.4265049,41.2755709 29.3492621,40.9939981 29.1944466,40.7939592 C29.0399612,40.5942505 28.8171456,40.4942311 28.5253398,40.4942311 C28.4012233,40.4942311 28.2827184,40.5173379 28.1704854,40.5635515 C28.0575922,40.609765 27.9559223,40.6787553 27.8651456,40.7708524 C27.7743689,40.8632796 27.7017476,40.9715515 27.6482718,41.0959981 C27.5947961,41.2201146 27.5680583,41.3607359 27.5680583,41.5172019 C27.5680583,41.7017262 27.597767,41.8591825 27.6571845,41.9889107 C27.7162718,42.1189689 27.7971456,42.2236097 27.8998058,42.3034932 C28.0018058,42.3830466 28.1173398,42.4414738 28.2464078,42.479435 C28.3744854,42.517066 28.5108155,42.5358816 28.6557282,42.5358816 L29.4265049,42.5358816 Z M30.7168544,42.5358816 C30.8409709,42.5358816 30.9030291,42.5820951 30.9030291,42.6741922 L30.9030291,42.9805223 C30.9030291,43.1059592 30.8409709,43.1690078 30.7168544,43.1690078 L28.6814757,43.1690078 C28.3639223,43.1690078 28.0932427,43.1244447 27.8694369,43.0349883 C27.645301,42.945532 27.465068,42.8309883 27.3280777,42.6913573 C27.1907573,42.5513961 27.091068,42.3916291 27.0290097,42.211066 C26.9669515,42.030833 26.9359223,41.8499398 26.9359223,41.6680563 C26.9359223,41.4277456 26.9771845,41.1993184 27.0597087,40.9827748 C27.1415728,40.765901 27.2564466,40.5774155 27.4036699,40.4166583 C27.5508932,40.255901 27.7255146,40.1281534 27.9278641,40.0330854 C28.1295534,39.9380175 28.3493981,39.8904835 28.5864078,39.8904835 C28.8112039,39.8904835 29.015534,39.9267942 29.1987379,39.9994155 C29.3822718,40.072367 29.5367573,40.174367 29.6625243,40.3057456 C29.7879612,40.4371243 29.8856699,40.5949107 29.9569709,40.779435 C30.0276117,40.9639592 30.062932,41.1663087 30.062932,41.3871437 L30.062932,42.5358816 L30.7168544,42.5358816 Z" id="Fill-1" fill="#37326D"></path>
            <path d="M30.4720874,43.1691068 C30.3479709,43.1691068 30.2855825,43.1215728 30.2855825,43.0265049 L30.2855825,42.7205049 C30.2855825,42.5977087 30.3479709,42.5359806 30.4720874,42.5359806 L31.5719709,42.5359806 C31.6960874,42.5359806 31.7584757,42.584835 31.7584757,42.6828738 L31.7584757,42.9802913 C31.7584757,43.1060583 31.6960874,43.1691068 31.5719709,43.1691068 L30.4720874,43.1691068 Z" id="Fill-3" fill="#37326D"></path>
            <path d="M33.1484155,44.4309029 C33.1484155,44.3305534 33.1843961,44.2453883 33.2570175,44.1750777 C33.3293087,44.1054272 33.4157942,44.0704369 33.5164738,44.0704369 C33.6204544,44.0704369 33.7095806,44.1054272 33.7828621,44.1750777 C33.8564738,44.2453883 33.8934447,44.3305534 33.8934447,44.4309029 C33.8934447,44.5289417 33.8564738,44.6124563 33.7828621,44.682767 C33.7095806,44.7520874 33.6204544,44.7877379 33.5164738,44.7877379 C33.4157942,44.7877379 33.3293087,44.7520874 33.2570175,44.682767 C33.1843961,44.6124563 33.1484155,44.5289417 33.1484155,44.4309029 L33.1484155,44.4309029 Z M32.0746097,44.4309029 C32.0746097,44.3305534 32.1105903,44.2453883 32.1828816,44.1750777 C32.2548427,44.1054272 32.3416583,44.0704369 32.442668,44.0704369 C32.5466485,44.0704369 32.6347845,44.1054272 32.7067456,44.1750777 C32.7790369,44.2453883 32.8150175,44.3305534 32.8150175,44.4309029 C32.8150175,44.5289417 32.7790369,44.6124563 32.7067456,44.682767 C32.6347845,44.7520874 32.5466485,44.7877379 32.442668,44.7877379 C32.3416583,44.7877379 32.2548427,44.7520874 32.1828816,44.682767 C32.1105903,44.6124563 32.0746097,44.5289417 32.0746097,44.4309029 L32.0746097,44.4309029 Z M31.4507262,43.1689417 C31.3266097,43.1689417 31.2645515,43.1214078 31.2645515,43.0263398 L31.2645515,42.7203398 C31.2645515,42.5975437 31.3266097,42.5358155 31.4507262,42.5358155 L32.1439301,42.5358155 C32.3400078,42.5358155 32.4713864,42.4823398 32.5377359,42.3747282 C32.6044155,42.2671165 32.6374252,42.122534 32.6374252,41.9406505 L32.6374252,40.1964175 L33.2784738,40.1964175 L33.2784738,41.6095631 C33.2784738,41.7435825 33.2929981,41.8667087 33.3217165,41.9782816 C33.350765,42.0901845 33.4019301,42.187233 33.4758718,42.2697573 C33.5491534,42.3522816 33.6452117,42.4173107 33.7637165,42.4648447 C33.8818913,42.5123786 34.0264738,42.5358155 34.1964738,42.5358155 L34.3743961,42.5358155 C34.5014835,42.5358155 34.564532,42.5820291 34.564532,42.6744563 L34.564532,42.9804563 C34.564532,43.1062233 34.5014835,43.1689417 34.3743961,43.1689417 L34.1707262,43.1689417 C33.9310757,43.1689417 33.724435,43.1223981 33.551134,43.0286505 C33.377833,42.9349029 33.2583379,42.7777767 33.1919883,42.5569417 C33.1338913,42.6883204 33.0708427,42.7946117 33.0015223,42.8758155 C32.9322019,42.9566893 32.8552893,43.0180874 32.7717748,43.0600097 C32.6879301,43.1022621 32.5971534,43.1306505 32.4987845,43.146165 C32.4004155,43.1613495 32.2997359,43.1689417 32.1957553,43.1689417 L31.4507262,43.1689417 Z" id="Fill-5" fill="#37326D"></path>
            <path d="M35.3962447,38.7041146 C35.3962447,38.603435 35.4322252,38.5176097 35.5045165,38.4463087 C35.5771379,38.3750078 35.6649437,38.3393573 35.7689243,38.3393573 C35.8696039,38.3393573 35.9564194,38.3750078 36.0290408,38.4463087 C36.1010019,38.5176097 36.1369825,38.603435 36.1369825,38.7041146 C36.1369825,38.8044641 36.1010019,38.8899592 36.0290408,38.9599398 C35.9564194,39.0295903 35.8696039,39.0645806 35.7689243,39.0645806 C35.6649437,39.0645806 35.5771379,39.0295903 35.5045165,38.9599398 C35.4322252,38.8899592 35.3962447,38.8044641 35.3962447,38.7041146 L35.3962447,38.7041146 Z M34.2574097,43.1690078 C34.1332932,43.1690078 34.0709049,43.1214738 34.0709049,43.0264058 L34.0709049,42.7204058 C34.0709049,42.5976097 34.1332932,42.5358816 34.2574097,42.5358816 L34.9502835,42.5358816 C35.1466913,42.5358816 35.2777398,42.4824058 35.3444194,42.3744641 C35.4107689,42.2671825 35.4441087,42.1226 35.4441087,41.9407165 L35.4441087,40.1964835 L36.0851573,40.1964835 L36.0851573,41.609299 C36.0851573,41.7436485 36.0996816,41.8667748 36.1280699,41.9783476 C36.1571184,42.0902505 36.2082835,42.187299 36.2822252,42.2698233 C36.3558369,42.3523476 36.4518951,42.4173767 36.5704,42.4649107 C36.6882447,42.5124447 36.8328272,42.5358816 37.0028272,42.5358816 L37.1810796,42.5358816 C37.3078369,42.5358816 37.3712155,42.5820951 37.3712155,42.6741922 L37.3712155,42.9805223 C37.3712155,43.1059592 37.3078369,43.1690078 37.1810796,43.1690078 L36.9770796,43.1690078 C36.7374291,43.1690078 36.5307883,43.122134 36.3578175,43.0287165 C36.1845165,42.9349689 36.0650214,42.7778427 35.9983417,42.5570078 C35.9402447,42.6883864 35.8771961,42.7946777 35.8078757,42.8755515 C35.7385553,42.9567553 35.6616427,43.0181534 35.5784583,43.0600757 C35.4946136,43.1019981 35.4038369,43.1307165 35.305468,43.1462311 C35.207099,43.1614155 35.1064194,43.1690078 35.0024388,43.1690078 L34.2574097,43.1690078 Z" id="Fill-7" fill="#37326D"></path>
            <path d="M42.2432175,41.860899 C42.2432175,41.5898893 42.2105379,41.3634427 42.1458388,41.1818893 C42.0808097,41.0003359 41.9916835,40.8541029 41.8794505,40.7438505 C41.7668874,40.633268 41.6312175,40.555035 41.4724408,40.5088214 C41.3136641,40.4629379 41.1416835,40.4398311 40.9568291,40.4398311 C40.7343437,40.4398311 40.5125184,40.4893456 40.290033,40.5883748 C40.0675476,40.687734 39.8618971,40.8283553 39.6727515,41.0099087 C39.4836058,41.1917922 39.3218583,41.411967 39.1875087,41.670433 C39.0534893,41.928899 38.967334,42.2174039 38.930033,42.5359476 L42.2432175,42.5359476 L42.2432175,41.860899 Z M37.063334,43.1690738 C36.9392175,43.1690738 36.8771592,43.1215398 36.8771592,43.0264718 L36.8771592,42.7204718 C36.8771592,42.5976757 36.9392175,42.5359476 37.063334,42.5359476 L38.2889845,42.5359476 L38.2889845,37.5636951 L38.9382854,37.5636951 L38.9382854,41.3159087 C39.0888097,41.0280641 39.2489068,40.786433 39.4192369,40.5906854 C39.5898971,40.395268 39.7648485,40.2397922 39.9457417,40.1252485 C40.1259748,40.0107049 40.3101689,39.9281806 40.4979942,39.8780058 C40.6858194,39.827501 40.8743049,39.8024136 41.065101,39.8024136 C41.3651592,39.8024136 41.6302272,39.8535786 41.8596447,39.9552485 C42.0897223,40.0575786 42.2811786,40.1958893 42.4356641,40.3705107 C42.5901495,40.545132 42.707334,40.7527631 42.7865573,40.9930738 C42.8661107,41.2337146 42.9057223,41.4921806 42.9057223,41.7688019 L42.9057223,43.1690738 L37.063334,43.1690738 Z" id="Fill-9" fill="#37326D"></path>
            <path d="M46.284134,42.5359476 L46.284134,41.6390738 C46.284134,41.2756369 46.2032602,40.993734 46.0415126,40.7940252 C45.879435,40.5943165 45.6602505,40.4942971 45.383299,40.4942971 C45.2591825,40.4942971 45.1377068,40.5174039 45.0192019,40.5636175 C44.9006971,40.609501 44.7977068,40.6788214 44.7095709,40.7709184 C44.621765,40.8633456 44.5511243,40.9716175 44.4976485,41.0960641 C44.4441728,41.2201806 44.417435,41.3608019 44.417435,41.517268 C44.417435,41.7017922 44.4471437,41.8589184 44.505901,41.9889767 C44.5656485,42.119035 44.6461922,42.2236757 44.7485223,42.3035592 C44.8511825,42.3831126 44.9667165,42.4415398 45.0951243,42.479501 C45.223532,42.517132 45.3601922,42.5359476 45.5044447,42.5359476 L46.284134,42.5359476 Z M47.8042311,42.5359476 C47.9253767,42.5359476 47.9857845,42.5821612 47.9857845,42.6742583 L47.9857845,42.9802583 C47.9857845,43.1060252 47.9253767,43.1690738 47.8042311,43.1690738 L46.9162699,43.1690738 C46.9073573,43.4932291 46.8525612,43.7695204 46.7518816,43.999268 C46.6508718,44.2286854 46.5092602,44.4158505 46.3273767,44.5610932 C46.1454932,44.7063359 45.9309301,44.811967 45.6843476,44.8776563 C45.437435,44.9433456 45.165435,44.9760252 44.8680175,44.9760252 C44.7551243,44.9760252 44.6395903,44.9730544 44.5214155,44.9674427 C44.4029107,44.9618311 44.281765,44.9496175 44.1576485,44.9301417 C44.165901,44.8208796 44.1748136,44.7188796 44.1833961,44.6238117 C44.1923087,44.5287437 44.2022117,44.4323553 44.213765,44.3343165 C44.3378816,44.3455398 44.4590272,44.3551126 44.577532,44.3617146 C44.6960369,44.3689767 44.8099204,44.3722777 44.9198427,44.3722777 C45.1017262,44.3722777 45.2740369,44.3567631 45.437435,44.3260641 C45.6005029,44.295035 45.7440951,44.2352874 45.8682117,44.1461612 C45.9923282,44.0563748 46.0926777,43.9335786 46.1692602,43.7771126 C46.2458427,43.6206466 46.2871049,43.4176369 46.2927165,43.1690738 L45.5391049,43.1690738 C45.2215515,43.1690738 44.9508718,43.1245107 44.727066,43.0350544 C44.5032602,42.9455981 44.3230272,42.8310544 44.1857068,42.6910932 C44.0483864,42.5514621 43.9486971,42.391365 43.8869689,42.211132 C43.8245806,42.030899 43.7938816,41.8500058 43.7938816,41.6681223 C43.7938816,41.4278117 43.8341534,41.1993845 43.9150272,40.9825107 C43.995901,40.765967 44.1094544,40.5774816 44.2550272,40.4167243 C44.4006,40.255967 44.5748913,40.1282194 44.7765806,40.0331515 C44.9789301,39.9380835 45.1981146,39.8905495 45.4351243,39.8905495 C45.6658621,39.8905495 45.8734932,39.9268602 46.0566971,39.9994816 C46.2402311,40.0721029 46.3947165,40.174433 46.5201534,40.3058117 C46.6455903,40.4371903 46.7429689,40.5949767 46.8122893,40.779501 C46.8816097,40.9640252 46.9162699,41.1663748 46.9162699,41.3872097 L46.9162699,42.5359476 L47.8042311,42.5359476 Z" id="Fill-11" fill="#37326D"></path>
            <path d="M47.6913709,43.1691068 C47.5672544,43.1691068 47.504866,43.1215728 47.504866,43.0265049 L47.504866,42.7205049 C47.504866,42.5977087 47.5672544,42.5359806 47.6913709,42.5359806 L48.7308466,42.5359806 L48.7308466,37.5637282 L49.371565,37.5637282 L49.371565,43.1691068 L47.6913709,43.1691068 Z" id="Fill-13" fill="#37326D"></path>
            <mask id="mask-2" fill="white">
                <use xlink:href="#path-1"></use>
            </mask>
            <g id="Clip-16"></g>
            <polygon id="Fill-15" fill="#37326D" mask="url(#mask-2)" points="50.6494369 43.1687767 51.2726602 43.1687767 51.2726602 37.5633981 50.6494369 37.5633981"></polygon>
            <path d="M55.0764019,38.7041146 C55.0764019,38.603435 55.1123825,38.5176097 55.1846738,38.4463087 C55.256635,38.3750078 55.3434505,38.3393573 55.4444602,38.3393573 C55.5484408,38.3393573 55.6365767,38.3750078 55.7085379,38.4463087 C55.7808291,38.5176097 55.8168097,38.603435 55.8168097,38.7041146 C55.8168097,38.8044641 55.7808291,38.8899592 55.7085379,38.9599398 C55.6365767,39.0295903 55.5484408,39.0645806 55.4444602,39.0645806 C55.3434505,39.0645806 55.256635,39.0295903 55.1846738,38.9599398 C55.1123825,38.8899592 55.0764019,38.8044641 55.0764019,38.7041146 L55.0764019,38.7041146 Z M53.9979748,38.7041146 C53.9979748,38.603435 54.0349456,38.5176097 54.1085573,38.4463087 C54.1818388,38.3750078 54.2679942,38.3393573 54.366033,38.3393573 C54.4700136,38.3393573 54.5588097,38.3750078 54.6324214,38.4463087 C54.706033,38.5176097 54.7430039,38.603435 54.7430039,38.7041146 C54.7430039,38.8044641 54.706033,38.8899592 54.6324214,38.9599398 C54.5588097,39.0295903 54.4700136,39.0645806 54.366033,39.0645806 C54.2679942,39.0645806 54.1818388,39.0295903 54.1085573,38.9599398 C54.0349456,38.8899592 53.9979748,38.8044641 53.9979748,38.7041146 L53.9979748,38.7041146 Z M55.7696058,42.5358816 L55.7696058,41.6390078 C55.7696058,41.2755709 55.6923631,40.9939981 55.5375476,40.7939592 C55.3830621,40.5942505 55.1602466,40.4942311 54.8684408,40.4942311 C54.7443243,40.4942311 54.6258194,40.5173379 54.5135864,40.5635515 C54.4006932,40.609765 54.2990233,40.6787553 54.2082466,40.7708524 C54.1174699,40.8632796 54.0448485,40.9715515 53.9913728,41.0959981 C53.9378971,41.2201146 53.9111592,41.3607359 53.9111592,41.5172019 C53.9111592,41.7017262 53.940868,41.8591825 54.0002854,41.9889107 C54.0593728,42.1189689 54.1402466,42.2236097 54.2429068,42.3034932 C54.3449068,42.3830466 54.4604408,42.4414738 54.5895087,42.479435 C54.7175864,42.517066 54.8539165,42.5358816 54.9988291,42.5358816 L55.7696058,42.5358816 Z M57.0599553,42.5358816 C57.1840718,42.5358816 57.2461301,42.5820951 57.2461301,42.6741922 L57.2461301,42.9805223 C57.2461301,43.1059592 57.1840718,43.1690078 57.0599553,43.1690078 L55.0245767,43.1690078 C54.7070233,43.1690078 54.4363437,43.1244447 54.2125379,43.0349883 C53.9884019,42.945532 53.8081689,42.8309883 53.6711786,42.6913573 C53.5338583,42.5513961 53.4341689,42.3916291 53.3721107,42.211066 C53.3100524,42.030833 53.2790233,41.8499398 53.2790233,41.6680563 C53.2790233,41.4277456 53.3202854,41.1993184 53.4028097,40.9827748 C53.4846738,40.765901 53.5995476,40.5774155 53.7467709,40.4166583 C53.8939942,40.255901 54.0686155,40.1281534 54.270965,40.0330854 C54.4726544,39.9380175 54.692499,39.8904835 54.9295087,39.8904835 C55.1543049,39.8904835 55.358635,39.9267942 55.5418388,39.9994155 C55.7253728,40.072367 55.8798583,40.174367 56.0056252,40.3057456 C56.1310621,40.4371243 56.2287709,40.5949107 56.3000718,40.779435 C56.3707126,40.9639592 56.406033,41.1663087 56.406033,41.3871437 L56.406033,42.5358816 L57.0599553,42.5358816 Z" id="Fill-17" fill="#37326D" mask="url(#mask-2)"></path>
            <path d="M61.5183126,42.5359476 C61.7117495,42.5359476 61.835866,42.486433 61.8906621,42.3874039 C61.9454583,42.2880447 61.9731864,42.1279476 61.9731864,41.9071126 C61.9731864,41.4710544 61.8583126,41.1175204 61.628235,40.8461806 C61.3988175,40.575501 61.0789534,40.4398311 60.6693029,40.4398311 C60.4065456,40.4398311 60.1560019,40.4975981 59.9176718,40.6137922 C59.6796718,40.7296563 59.4703903,40.8861223 59.2898272,41.0831903 C59.1092641,41.2805883 58.962701,41.5053845 58.850468,41.7582388 C58.7375748,42.0110932 58.6725456,42.2705495 58.6550505,42.5359476 L61.5183126,42.5359476 Z M56.8147592,43.1690738 C56.6906427,43.1690738 56.6282544,43.1215398 56.6282544,43.0264718 L56.6282544,42.7204718 C56.6282544,42.5976757 56.6906427,42.5359476 56.8147592,42.5359476 L58.0275359,42.5359476 L58.0275359,40.205132 L58.6550505,40.205132 L58.6550505,41.3327437 C58.8055748,41.044899 58.9656718,40.8029379 59.1360019,40.6075204 C59.3066621,40.4117728 59.4816136,40.2566272 59.6625068,40.1420835 C59.8427398,40.0275398 60.0275942,39.9450155 60.2164097,39.8948408 C60.4055553,39.8443359 60.5940408,39.8192485 60.7815359,39.8192485 C61.0733417,39.8192485 61.3318078,39.8714039 61.5572641,39.9763748 C61.7823903,40.0813456 61.9735165,40.225268 62.1309728,40.4081417 C62.288099,40.5913456 62.4085845,40.8052485 62.4924291,41.0498505 C62.5762738,41.2941223 62.6181961,41.5575398 62.6181961,41.8401029 C62.6181961,42.0889961 62.6947786,42.2672485 62.8479437,42.3745301 C63.0004485,42.4824718 63.2387786,42.5359476 63.5622738,42.5359476 L63.6358854,42.5359476 C63.7600019,42.5359476 63.8223903,42.5821612 63.8223903,42.6742583 L63.8223903,42.9802583 C63.8223903,43.1060252 63.7600019,43.1690738 63.6358854,43.1690738 L63.5451087,43.1690738 C63.2965456,43.1690738 63.0829728,43.129132 62.9040602,43.0495786 C62.7251476,42.9696951 62.5921184,42.8086078 62.505633,42.5653262 C62.3960408,42.7637146 62.2534388,42.9142388 62.0788175,43.0159087 C61.9041961,43.1179087 61.7143903,43.1690738 61.5094,43.1690738 L56.8147592,43.1690738 Z" id="Fill-18" fill="#37326D" mask="url(#mask-2)"></path>
            <path d="M64.7856136,38.7041146 C64.7856136,38.603435 64.8215942,38.5176097 64.8938854,38.4463087 C64.9665068,38.3750078 65.0543126,38.3393573 65.1582932,38.3393573 C65.2589728,38.3393573 65.3457883,38.3750078 65.4184097,38.4463087 C65.4903709,38.5176097 65.5263515,38.603435 65.5263515,38.7041146 C65.5263515,38.8044641 65.4903709,38.8899592 65.4184097,38.9599398 C65.3457883,39.0295903 65.2589728,39.0645806 65.1582932,39.0645806 C65.0543126,39.0645806 64.9665068,39.0295903 64.8938854,38.9599398 C64.8215942,38.8899592 64.7856136,38.8044641 64.7856136,38.7041146 L64.7856136,38.7041146 Z M63.6467786,43.1690078 C63.5226621,43.1690078 63.4602738,43.1214738 63.4602738,43.0264058 L63.4602738,42.7204058 C63.4602738,42.5976097 63.5226621,42.5358816 63.6467786,42.5358816 L64.3396524,42.5358816 C64.5360602,42.5358816 64.6671087,42.4824058 64.7337883,42.3744641 C64.8001379,42.2671825 64.8334777,42.1226 64.8334777,41.9407165 L64.8334777,40.1964835 L65.4745262,40.1964835 L65.4745262,41.609299 C65.4745262,41.7436485 65.4890505,41.8667748 65.5174388,41.9783476 C65.5464874,42.0902505 65.5976524,42.187299 65.6715942,42.2698233 C65.7452058,42.3523476 65.8412641,42.4173767 65.9597689,42.4649107 C66.0776136,42.5124447 66.2221961,42.5358816 66.3921961,42.5358816 L66.5704485,42.5358816 C66.6972058,42.5358816 66.7605845,42.5820951 66.7605845,42.6741922 L66.7605845,42.9805223 C66.7605845,43.1059592 66.6972058,43.1690078 66.5704485,43.1690078 L66.3664485,43.1690078 C66.1267981,43.1690078 65.9201573,43.122134 65.7471864,43.0287165 C65.5738854,42.9349689 65.4543903,42.7778427 65.3877107,42.5570078 C65.3296136,42.6883864 65.266565,42.7946777 65.1972447,42.8755515 C65.1279243,42.9567553 65.0510117,43.0181534 64.9678272,43.0600757 C64.8839825,43.1019981 64.7932058,43.1307165 64.6948369,43.1462311 C64.596468,43.1614155 64.4957883,43.1690078 64.3918078,43.1690078 L63.6467786,43.1690078 Z" id="Fill-19" fill="#37326D" mask="url(#mask-2)"></path>
            <path d="M68.9436155,42.5820951 C69.1080039,42.5820951 69.2515961,42.5556874 69.3743922,42.5025417 C69.4971883,42.4493961 69.5972078,42.3787553 69.6754408,42.2909495 C69.7533437,42.2028136 69.8107806,42.1008136 69.8487417,41.9846194 C69.8863728,41.8687553 69.9051883,41.7406777 69.9051883,41.6010466 C69.9051883,41.4307165 69.8784505,41.2775515 69.8249748,41.1422117 C69.771499,41.0065417 69.699868,40.8910078 69.6104117,40.7962699 C69.5209553,40.7012019 69.417635,40.6269301 69.3007806,40.5741146 C69.1839262,40.5209689 69.0647612,40.4942311 68.9436155,40.4942311 C68.8135573,40.4942311 68.6894408,40.5209689 68.5709359,40.5741146 C68.4524311,40.6269301 68.3487806,40.7012019 68.2593243,40.7962699 C68.1695379,40.8910078 68.0998874,41.0065417 68.0490524,41.1422117 C67.9985476,41.2775515 67.9734602,41.4307165 67.9734602,41.6010466 C67.9734602,41.7406777 67.9919456,41.8687553 68.0295767,41.9846194 C68.0668777,42.1008136 68.1262951,42.2028136 68.207499,42.2909495 C68.2880427,42.3787553 68.3880621,42.4493961 68.5082175,42.5025417 C68.6280427,42.5556874 68.7732854,42.5820951 68.9436155,42.5820951 L68.9436155,42.5820951 Z M71.3817126,43.1690078 C71.2691495,43.1690078 71.1582369,43.159435 71.0479845,43.1399592 C70.9357515,43.1175126 70.8304505,43.0788913 70.7320816,43.0244252 C70.6340427,42.9699592 70.546567,42.8973379 70.4703146,42.8065612 C70.3934019,42.7154544 70.3362951,42.6002505 70.2989942,42.4606194 C70.1920427,42.6253379 70.0831107,42.7573767 69.971868,42.8567359 C69.8609553,42.9560951 69.747732,43.0313573 69.631868,43.0831825 C69.5166641,43.1350078 69.3984893,43.1683476 69.2770136,43.1838621 C69.155868,43.1990466 69.0317515,43.2066388 68.904334,43.2066388 C68.5956932,43.2066388 68.3359068,43.1511825 68.1249748,43.0392796 C67.9143728,42.9273767 67.7334796,42.751435 67.5836155,42.5107942 C67.5083534,42.7316291 67.3888583,42.8966777 67.2241398,43.0056097 C67.0597515,43.1145417 66.8920621,43.1690078 66.7214019,43.1690078 L66.4533631,43.1690078 C66.3292466,43.1690078 66.2668583,43.1214738 66.2668583,43.0264058 L66.2668583,42.7204058 C66.2668583,42.5976097 66.3292466,42.5358816 66.4533631,42.5358816 L66.6609942,42.5358816 C66.7478097,42.5358816 66.8319845,42.523668 66.9145087,42.4982505 C66.997033,42.4731631 67.0696544,42.4256291 67.133033,42.3556485 C67.1967417,42.2859981 67.2488971,42.1902699 67.2891689,42.0684641 C67.3294408,41.9469883 67.3495767,41.7898621 67.3495767,41.5967553 C67.3495767,41.3564447 67.3901786,41.1329689 67.4707223,40.9263282 C67.5519262,40.7193573 67.6625087,40.5411049 67.8024699,40.3915709 C67.9424311,40.2420369 68.1104505,40.1255126 68.3068583,40.041668 C68.5029359,39.9574932 68.7184893,39.9155709 68.9521981,39.9155709 C69.4400816,39.9155709 69.8187029,40.072367 70.0890524,40.385299 C70.3587417,40.6982311 70.4940816,41.1385806 70.4940816,41.7060175 C70.4940816,41.7703864 70.5026641,41.8499398 70.5198291,41.9450078 C70.5373243,42.0400757 70.5775961,42.1308524 70.6413049,42.2173379 C70.7050136,42.3041534 70.7971107,42.3787553 70.9185864,42.4414738 C71.039732,42.5045223 71.2054408,42.5358816 71.4163728,42.5358816 L72.4254796,42.5358816 L72.4254796,37.5636291 L73.0665282,37.5636291 L73.0665282,43.1690078 L71.3817126,43.1690078 Z" id="Fill-20" fill="#37326D" mask="url(#mask-2)"></path>
            <polygon id="Fill-21" fill="#37326D" mask="url(#mask-2)" points="74.3570097 43.1687767 74.980233 43.1687767 74.980233 37.5633981 74.3570097 37.5633981"></polygon>
            <path d="M1.70874757,38.7038835 C1.70874757,38.6032039 1.74604854,38.5170485 1.82164078,38.4457476 C1.89657282,38.3747767 1.98470874,38.3391262 2.08571845,38.3391262 C2.18969903,38.3391262 2.27783495,38.3747767 2.34979612,38.4457476 C2.42208738,38.5170485 2.45806796,38.6032039 2.45806796,38.7038835 C2.45806796,38.8045631 2.42208738,38.8897282 2.34979612,38.9597087 C2.27783495,39.0293592 2.18969903,39.0643495 2.08571845,39.0643495 C1.98470874,39.0643495 1.89657282,39.0293592 1.82164078,38.9597087 C1.74604854,38.8897282 1.70874757,38.8045631 1.70874757,38.7038835 L1.70874757,38.7038835 Z M0.63923301,38.7038835 C0.63923301,38.6032039 0.675213592,38.5170485 0.747174757,38.4457476 C0.819466019,38.3747767 0.905951456,38.3391262 1.00729126,38.3391262 C1.11127184,38.3391262 1.19907767,38.3747767 1.27136893,38.4457476 C1.3433301,38.5170485 1.37964078,38.6032039 1.37964078,38.7038835 C1.37964078,38.8045631 1.3433301,38.8897282 1.27136893,38.9597087 C1.19907767,39.0293592 1.11127184,39.0643495 1.00729126,39.0643495 C0.905951456,39.0643495 0.819466019,39.0293592 0.747174757,38.9597087 C0.675213592,38.8897282 0.63923301,38.8045631 0.63923301,38.7038835 L0.63923301,38.7038835 Z M2.44948544,42.5359806 L2.44948544,41.6387767 C2.44948544,41.2753398 2.37092233,40.9934369 2.21346602,40.7937282 C2.05633981,40.5940194 1.83154369,40.4943301 1.54006796,40.4943301 C1.42156311,40.4943301 1.30602913,40.5171068 1.19346602,40.5636505 C1.08090291,40.609534 0.980553398,40.6785243 0.892417476,40.7706214 C0.80461165,40.8630485 0.732320388,40.9713204 0.676203883,41.0954369 C0.619427184,41.2198835 0.591368932,41.3605049 0.591368932,41.5169709 C0.591368932,41.7014951 0.620747573,41.8589515 0.680495146,41.9890097 C0.739252427,42.1187379 0.820456311,42.2230485 0.922786408,42.3032621 C1.0251165,42.3828155 1.14065049,42.4412427 1.26938835,42.4792039 C1.39779612,42.517165 1.53412621,42.5359806 1.67870874,42.5359806 L2.44948544,42.5359806 Z M3.08591262,43.1691068 L1.70445631,43.1691068 C1.38690291,43.1691068 1.1162233,43.1242136 0.892417476,43.0347573 C0.66861165,42.945301 0.488378641,42.8310874 0.351058252,42.6911262 C0.214067961,42.550835 0.114048544,42.3913981 0.0523203883,42.210835 C-0.0100679612,42.0306019 -0.0407669903,41.8493786 -0.0407669903,41.6678252 C-0.0407669903,41.4275146 -0.000495145631,41.1994175 0.0803786408,40.9822136 C0.16092233,40.7656699 0.274805825,40.5775146 0.420378641,40.4164272 C0.565951456,40.2556699 0.740242718,40.1279223 0.942262136,40.0328544 C1.14428155,39.9377864 1.36676699,39.8899223 1.60938835,39.8899223 C1.83418447,39.8899223 2.03884466,39.9265631 2.22204854,39.9991845 C2.40558252,40.0718058 2.56006796,40.1738058 2.68550485,40.3055146 C2.81127184,40.4368932 2.90898058,40.5943495 2.98028155,40.7788738 C3.05092233,40.9633981 3.08591262,41.1660777 3.08591262,41.3869126 L3.08591262,43.1691068 Z" id="Fill-22" fill="#37326D" mask="url(#mask-2)"></path>
            <path d="M8.02324078,42.5359476 C8.14735728,42.5359476 8.20974563,42.5818311 8.20974563,42.6742583 L8.20974563,42.9799282 C8.20974563,43.1060252 8.14735728,43.1690738 8.02324078,43.1690738 L7.82386214,43.1690738 C7.7142699,43.1690738 7.60830874,43.1598311 7.50564854,43.1420058 C7.40331845,43.1231903 7.30858058,43.091501 7.22209515,43.0456175 C7.13527961,42.9990738 7.05935728,42.9327243 6.99432816,42.8459087 C6.92962913,42.7594233 6.88110485,42.6475204 6.84974563,42.5105301 C6.82069709,42.6250738 6.77019223,42.7241029 6.69790097,42.8086078 C6.62593981,42.8917922 6.54473592,42.9607825 6.45527961,43.0135981 C6.3658233,43.0670738 6.26712427,43.1060252 6.15885243,43.1311126 C6.05025049,43.1558699 5.94461942,43.1690738 5.84063883,43.1690738 L3.99110485,43.1690738 L3.99110485,42.5359476 L5.77131845,42.5359476 C5.96178447,42.5359476 6.0938233,42.4880835 6.16743495,42.3930155 C6.2410466,42.2979476 6.27801748,42.153035 6.27801748,41.9572874 C6.27801748,41.7057534 6.26844466,41.4859087 6.24995922,41.2987437 C6.23114369,41.1119087 6.18096893,40.9577534 6.10042524,40.8379282 C6.01955146,40.7174427 5.9010466,40.6273262 5.74491068,40.5672485 C5.58910485,40.5071709 5.37421165,40.4774621 5.09957087,40.4774621 L4.45423107,40.4774621 L4.45423107,39.8780058 L5.29498835,39.8780058 C5.59801748,39.8780058 5.85186214,39.9189379 6.05685243,40.0014621 C6.26184272,40.0839864 6.42623107,40.1982 6.55100777,40.3450932 C6.67512427,40.4919864 6.76359029,40.6646272 6.81706602,40.8633456 C6.87021165,41.061734 6.89694951,41.2779476 6.89694951,41.5126466 C6.89694951,41.8569379 6.97155146,42.1130932 7.12042524,42.2821029 C7.26896893,42.4511126 7.50762913,42.5359476 7.83673592,42.5359476 L8.02324078,42.5359476 Z" id="Fill-23" fill="#37326D" mask="url(#mask-2)"></path>
            <path d="M10.7604388,42.5359476 C10.6072738,42.3712291 10.4897592,42.1883553 10.4078951,41.9889767 C10.3253709,41.7886078 10.271235,41.6007825 10.2451573,41.4245107 C10.1642835,40.8210932 9.87115728,40.5193845 9.36577864,40.5193845 C9.25915728,40.5193845 9.12975922,40.5335786 8.97857476,40.5609767 C8.8267301,40.5887049 8.67620583,40.6352485 8.52568155,40.6992874 C8.49993398,40.5850738 8.47187573,40.4830738 8.4415068,40.3936175 C8.41113786,40.3041612 8.38274951,40.2061223 8.35700194,40.0998311 C8.50125437,40.0605495 8.68247767,40.0136757 8.90034175,39.9595398 C9.11853592,39.9050738 9.33573981,39.8780058 9.5522835,39.8780058 C9.76849709,39.8780058 9.95764272,39.9110155 10.1197204,39.9780252 C10.281468,40.0456951 10.4151573,40.1397728 10.5224388,40.2615786 C10.6293903,40.3827243 10.713565,40.5289573 10.7759534,40.6992874 C10.8376816,40.8696175 10.8789437,41.0561223 10.8990796,41.2571515 C10.9162447,41.3716951 10.9347301,41.4859087 10.9535456,41.6007825 C10.9720311,41.7153262 11.0017398,41.8278893 11.0420117,41.9384718 C11.0826136,42.0490544 11.1374097,42.1520447 11.2067301,42.248433 C11.2760505,42.3448214 11.3697981,42.4296563 11.4883029,42.5022777 L11.4883029,43.1690738 L7.91071068,43.1690738 C7.78659417,43.1690738 7.72453592,43.1212097 7.72453592,43.0261417 L7.72453592,42.7204718 C7.72453592,42.5973456 7.78659417,42.5359476 7.91071068,42.5359476 L10.7604388,42.5359476 Z" id="Fill-24" fill="#37326D" mask="url(#mask-2)"></path>
            <path d="M14.5808175,42.5359476 L14.5808175,41.6387437 C14.5808175,41.2753068 14.4999437,40.9934039 14.3381961,40.7940252 C14.1761184,40.5939864 13.956934,40.4942971 13.6796524,40.4942971 C13.555866,40.4942971 13.4343903,40.5170738 13.3158854,40.5636175 C13.1973806,40.609501 13.0943903,40.6788214 13.0062544,40.7705883 C12.9184485,40.8633456 12.8478078,40.9712874 12.794332,41.0954039 C12.7408563,41.2201806 12.7141184,41.3604718 12.7141184,41.5169379 C12.7141184,41.7014621 12.7438272,41.8589184 12.8025845,41.9889767 C12.862332,42.1187049 12.9428757,42.2230155 13.0452058,42.3032291 C13.147866,42.3827825 13.2634,42.4412097 13.3918078,42.4791709 C13.5202155,42.517132 13.6568757,42.5359476 13.8011282,42.5359476 L14.5808175,42.5359476 Z M16.1009146,42.5359476 C16.2220602,42.5359476 16.282468,42.5818311 16.282468,42.6742583 L16.282468,42.9799282 C16.282468,43.1060252 16.2220602,43.1690738 16.1009146,43.1690738 L15.2129534,43.1690738 C15.2040408,43.4932291 15.1492447,43.7695204 15.048565,43.9989379 C14.9475553,44.2283553 14.8059437,44.4158505 14.6240602,44.5607631 C14.4421767,44.7060058 14.2276136,44.811967 13.9810311,44.8773262 C13.7341184,44.9430155 13.4621184,44.9756951 13.164701,44.9756951 C13.0518078,44.9756951 12.9362738,44.9730544 12.818099,44.9674427 C12.6995942,44.9618311 12.5784485,44.9496175 12.454332,44.9298117 C12.4625845,44.8208796 12.4714971,44.7185495 12.4800796,44.6234816 C12.4889922,44.5284136 12.4988951,44.4320252 12.5104485,44.3343165 C12.634565,44.3455398 12.7557107,44.3547825 12.8742155,44.3613845 C12.9927204,44.3689767 13.1066039,44.3722777 13.2165262,44.3722777 C13.3984097,44.3722777 13.5707204,44.3567631 13.7341184,44.325734 C13.8971864,44.295035 14.0407786,44.2349573 14.1648951,44.1458311 C14.2890117,44.0560447 14.3893612,43.9332485 14.4659437,43.7767825 C14.5425262,43.6206466 14.5837883,43.4173068 14.5894,43.1690738 L13.8357883,43.1690738 C13.518235,43.1690738 13.2475553,43.1241806 13.0237495,43.0347243 C12.7999437,42.945268 12.6197107,42.8310544 12.4823903,42.6910932 C12.3450699,42.5508019 12.2453806,42.391365 12.1836524,42.2108019 C12.1212641,42.0305689 12.090565,41.8493456 12.090565,41.6677922 C12.090565,41.4274816 12.1308369,41.1993845 12.2117107,40.9821806 C12.2925845,40.7656369 12.4061379,40.5774816 12.5517107,40.4163942 C12.6972835,40.255967 12.8715748,40.1278893 13.0732641,40.0328214 C13.2756136,39.9377534 13.4947981,39.8902194 13.7318078,39.8902194 C13.9625456,39.8902194 14.1701767,39.9265301 14.3533806,39.9991515 C14.5369146,40.0717728 14.6914,40.1737728 14.8168369,40.3054816 C14.9422738,40.4371903 15.0396524,40.5943165 15.1089728,40.7788408 C15.1782932,40.963365 15.2129534,41.1660447 15.2129534,41.3868796 L15.2129534,42.5359476 L16.1009146,42.5359476 Z" id="Fill-25" fill="#37326D" mask="url(#mask-2)"></path>
            <path d="M18.4784388,42.5818641 C18.6428272,42.5818641 18.7864194,42.5557864 18.9092155,42.5023107 C19.0320117,42.448835 19.1320311,42.3785243 19.2102641,42.2907184 C19.288167,42.2025825 19.3456039,42.1005825 19.383565,41.9843883 C19.4211961,41.8685243 19.4400117,41.7407767 19.4400117,41.6008155 C19.4400117,41.4304854 19.4132738,41.2773204 19.3597981,41.1419806 C19.3063223,41.0066408 19.2346913,40.8907767 19.145235,40.7957087 C19.0557786,40.701301 18.9524583,40.626699 18.8356039,40.5738835 C18.7187495,40.5204078 18.5995845,40.4943301 18.4784388,40.4943301 C18.3483806,40.4943301 18.2242641,40.5204078 18.1057592,40.5738835 C17.9872544,40.626699 17.8836039,40.701301 17.7941476,40.7957087 C17.7043612,40.8907767 17.6347107,41.0066408 17.5838757,41.1419806 C17.5333709,41.2773204 17.5082835,41.4304854 17.5082835,41.6008155 C17.5082835,41.7407767 17.5267689,41.8685243 17.5644,41.9843883 C17.601701,42.1005825 17.6611184,42.2025825 17.7423223,42.2907184 C17.822866,42.3785243 17.9228854,42.448835 18.0430408,42.5023107 C18.162866,42.5557864 18.3081087,42.5818641 18.4784388,42.5818641 L18.4784388,42.5818641 Z M20.9165359,43.1691068 C20.8039728,43.1691068 20.6930602,43.1588738 20.5828078,43.1397282 C20.4705748,43.1172816 20.3652738,43.0786602 20.2669049,43.0238641 C20.168866,42.9697282 20.0813903,42.8971068 20.0051379,42.8063301 C19.9282252,42.7152233 19.8711184,42.6000194 19.8338175,42.4600583 C19.726866,42.6251068 19.617934,42.7571456 19.5066913,42.8561748 C19.3957786,42.955534 19.2825553,43.0314563 19.1666913,43.0829515 C19.0514874,43.1344466 18.9333126,43.1681165 18.8118369,43.1836311 C18.6906913,43.1991456 18.5665748,43.2067379 18.4391573,43.2067379 C18.1305165,43.2067379 17.8707301,43.1509515 17.6597981,43.0390485 C17.4491961,42.9274757 17.2683029,42.751534 17.1184388,42.5105631 C17.0431767,42.7317282 16.9236816,42.8964466 16.7589631,43.0050485 C16.5945748,43.1143107 16.4268854,43.1691068 16.2562252,43.1691068 L15.9881864,43.1691068 C15.8640699,43.1691068 15.8016816,43.1212427 15.8016816,43.0261748 L15.8016816,42.7205049 C15.8016816,42.5973786 15.8640699,42.5359806 15.9881864,42.5359806 L16.1958175,42.5359806 C16.282633,42.5359806 16.3668078,42.5234369 16.449332,42.4980194 C16.5318563,42.4732621 16.6044777,42.4253981 16.6678563,42.3550874 C16.731565,42.285767 16.7837204,42.1900388 16.8239922,42.0685631 C16.8642641,41.9467573 16.8844,41.7896311 16.8844,41.5965243 C16.8844,41.3562136 16.9250019,41.133068 17.0055456,40.9260971 C17.0867495,40.7191262 17.197332,40.5408738 17.3372932,40.3910097 C17.4772544,40.2418058 17.6452738,40.1252816 17.8416816,40.0414369 C18.0377592,39.9575922 18.2533126,39.9153398 18.4870214,39.9153398 C18.9749049,39.9153398 19.3535262,40.0718058 19.6238757,40.385068 C19.893565,40.6983301 20.0289049,41.1386796 20.0289049,41.7057864 C20.0289049,41.7698252 20.0374874,41.8493786 20.0546524,41.9451068 C20.0721476,42.0395146 20.1124194,42.1302913 20.1761282,42.2171068 C20.2398369,42.3035922 20.331934,42.3785243 20.4534097,42.4412427 C20.5745553,42.5042913 20.7402641,42.5359806 20.9511961,42.5359806 L21.9603029,42.5359806 L21.9603029,37.5637282 L22.6013515,37.5637282 L22.6013515,43.1691068 L20.9165359,43.1691068 Z" id="Fill-26" fill="#37326D" mask="url(#mask-2)"></path>
            <polygon id="Fill-27" fill="#37326D" mask="url(#mask-2)" points="23.891767 43.1687767 24.5149903 43.1687767 24.5149903 37.5633981 23.891767 37.5633981"></polygon>
            <path d="M14.0124563,29.0414466 C13.1221845,29.5177767 12.185699,29.869 11.2016796,30.0957767 C10.2179903,30.3225534 9.22274757,30.4357767 8.21529126,30.4357767 C7.00515534,30.4357767 5.89833981,30.2449806 4.89517476,29.8633883 C3.89200971,29.4817961 3.02352427,28.9450583 2.28938835,28.253835 C1.55558252,27.5622816 0.983854369,26.7327476 0.573873786,25.765233 C0.164223301,24.7977184 -0.0407669903,23.732165 -0.0407669903,22.5682427 C-0.0407669903,21.3818738 0.173796117,20.304767 0.603252427,19.3372524 C1.03237864,18.370068 1.6258932,17.544165 2.38313592,16.8598738 C3.14037864,16.1762427 4.02074757,15.6431359 5.02424272,15.2618738 C6.02740777,14.8802816 7.11474757,14.6891553 8.28560194,14.6891553 C9.30824272,14.6891553 10.288301,14.8383592 11.2251165,15.1370971 C12.1622621,15.4355049 13.0010388,15.9438544 13.742767,16.6618155 L12.3728641,18.0561456 C11.8493301,17.5045534 11.2135631,17.0813689 10.4639126,16.7865922 C9.71393204,16.4918155 8.94546602,16.3442621 8.15686408,16.3442621 C7.26659223,16.3442621 6.4426699,16.4994078 5.68542718,16.8090388 C4.92818447,17.119 4.26898058,17.5497767 3.70649515,18.1013689 C3.14433981,18.6532913 2.70729126,19.3088641 2.39534951,20.0684175 C2.08241748,20.8279709 1.92661165,21.6611359 1.92661165,22.5682427 C1.92661165,23.4525728 2.08241748,24.2745146 2.39534951,25.034068 C2.70729126,25.7936214 3.14433981,26.4531553 3.70649515,27.0123398 C4.26898058,27.5718544 4.94204854,28.0062621 5.72668932,28.3162233 C6.5113301,28.6261845 7.37618447,28.781 8.32092233,28.781 C8.94546602,28.781 9.60136893,28.7070583 10.288301,28.5595049 C10.9749029,28.4122816 11.6037379,28.1950777 12.1734854,27.9078932 L12.1734854,23.3277961 L8.61338835,23.3277961 L8.61338835,21.6726893 L14.0124563,21.6726893 L14.0124563,29.0414466 Z" id="Fill-28" fill="#007EB5" mask="url(#mask-2)"></path>
            <path d="M24.2899301,28.780868 C25.1877942,28.780868 26.0117165,28.6184602 26.7607068,28.2933146 C27.5106874,27.968499 28.1543767,27.5241883 28.6934252,26.9613728 C29.2321437,26.3982272 29.651367,25.7386932 29.9524155,24.983101 C30.253134,24.2271786 30.4029981,23.4224019 30.4029981,22.5681107 C30.4029981,21.7068874 30.253134,20.8981495 29.9524155,20.1418971 C29.651367,19.386635 29.2321437,18.727101 28.6934252,18.1639553 C28.1543767,17.6008097 27.5106874,17.1568291 26.7607068,16.8316835 C26.0117165,16.506868 25.1877942,16.3441301 24.2899301,16.3441301 C23.3844738,16.3441301 22.5569204,16.506868 21.8076,16.8316835 C21.0579495,17.1568291 20.4119495,17.6008097 19.8692699,18.1639553 C19.3265903,18.727101 18.9067068,19.386635 18.6106097,20.1418971 C18.3135223,20.8981495 18.1653087,21.7068874 18.1653087,22.5681107 C18.1653087,23.4224019 18.3135223,24.2271786 18.6106097,24.983101 C18.9067068,25.7386932 19.3265903,26.3982272 19.8692699,26.9613728 C20.4119495,27.5241883 21.0579495,27.968499 21.8076,28.2933146 C22.5569204,28.6184602 23.3844738,28.780868 24.2899301,28.780868 M24.2899301,30.4359748 C23.1032311,30.4359748 22.0178718,30.2375864 21.0345126,29.8408097 C20.0504932,29.4437029 19.1995029,28.8960718 18.4812117,28.1969262 C17.7632505,27.4977806 17.2027456,26.6665961 16.8006874,25.7027126 C16.3986291,24.7391592 16.1979301,23.6944019 16.1979301,22.5681107 C16.1979301,21.4345573 16.3986291,20.3858388 16.8006874,19.4222854 C17.2027456,18.458732 17.7632505,17.6275476 18.4812117,16.9280718 C19.1995029,16.2292563 20.0504932,15.6812951 21.0345126,15.2841883 C22.0178718,14.8874117 23.1032311,14.6893534 24.2899301,14.6893534 C25.4690369,14.6893534 26.5481243,14.8874117 27.5281825,15.2841883 C28.5079107,15.6812951 29.358901,16.2292563 30.0808233,16.9280718 C30.8034058,17.6275476 31.364901,18.458732 31.7676194,19.4222854 C32.1693476,20.3858388 32.3707068,21.4345573 32.3707068,22.5681107 C32.3707068,23.6944019 32.1693476,24.7391592 31.7676194,25.7027126 C31.364901,26.6665961 30.8034058,27.4977806 30.0808233,28.1969262 C29.358901,28.8960718 28.5079107,29.4437029 27.5281825,29.8408097 C26.5481243,30.2375864 25.4690369,30.4359748 24.2899301,30.4359748" id="Fill-29" fill="#007EB5" mask="url(#mask-2)"></path>
            <polygon id="Fill-30" fill="#007EB5" mask="url(#mask-2)" points="32.4458039 15.0745767 34.530367 15.0745767 39.2854155 27.3865379 39.3322893 27.3865379 44.2504058 15.0745767 46.1824641 15.0745767 40.1400369 30.0504214 38.3717068 30.0504214"></polygon>
            <path d="M45.4175631,27.6470505 C45.7849612,27.6470505 46.0952524,27.767866 46.3490971,28.0098272 C46.6022816,28.2517883 46.729699,28.5501961 46.729699,28.9057107 C46.729699,29.2608951 46.5946893,29.5612835 46.3256602,29.8065456 C46.0559709,30.052468 45.7532718,30.1752641 45.4175631,30.1752641 C45.0818544,30.1752641 44.7798155,30.052468 44.5101262,29.8065456 C44.2410971,29.5612835 44.1060874,29.2608951 44.1060874,28.9057107 C44.1060874,28.5501961 44.2354854,28.2517883 44.492301,28.0098272 C44.7501068,27.767866 45.0584175,27.6470505 45.4175631,27.6470505" id="Fill-31" fill="#007EB5" mask="url(#mask-2)"></path>
            <path d="M57.4508233,17.7161126 C57.1378913,17.2321903 56.7262602,16.8826175 56.2152699,16.6673942 C55.7036194,16.4518408 55.1705126,16.3442291 54.6166097,16.3442291 C54.2105903,16.3442291 53.8105126,16.3937437 53.4163767,16.4917825 C53.0219107,16.5898214 52.6687068,16.7373748 52.356435,16.9337825 C52.0441631,17.1305204 51.7942796,17.3912971 51.6067845,17.7161126 C51.4192893,18.0409282 51.3255417,18.4228505 51.3255417,18.8608893 C51.3255417,19.2008893 51.3800078,19.5016078 51.4896,19.7623845 C51.5991922,20.0228311 51.7764544,20.2595107 52.0227068,20.4711029 C52.2686291,20.682365 52.6020272,20.8791029 53.0238913,21.0606563 C53.4457553,21.2418796 53.9649981,21.4270641 54.5816194,21.6158796 C55.175134,21.7898408 55.7524738,21.984268 56.3149592,22.1998214 C56.8764544,22.4153748 57.3722602,22.6834136 57.8017165,23.0045981 C58.2308427,23.3257825 58.5728233,23.7301515 58.8269981,24.2177049 C59.0801825,24.7049282 59.2072699,25.3156078 59.2072699,26.0484233 C59.2072699,26.7970835 59.054765,27.4470447 58.7507456,27.9986369 C58.4463961,28.5502291 58.0423573,29.0057631 57.538299,29.3645786 C57.034901,29.7237243 56.4572311,29.9917631 55.8049592,30.1696854 C55.1533476,30.3472777 54.4720272,30.4357437 53.7616583,30.4357437 C53.3322019,30.4357437 52.8872311,30.396132 52.4267456,30.3169087 C51.9659301,30.2376854 51.5288816,30.1165398 51.1146097,29.954132 C50.7013282,29.7917243 50.313134,29.580132 49.9496971,29.3190252 C49.5865903,29.0585786 49.272668,28.7393748 49.0072699,28.3614136 L50.5765515,27.1027534 C50.9198524,27.6546757 51.3882602,28.0722485 51.9817748,28.3558019 C52.5749592,28.6390252 53.2074252,28.780967 53.8788427,28.780967 C54.2686874,28.780967 54.665134,28.7241903 55.0671922,28.610967 C55.4695806,28.4974136 55.8303767,28.3313748 56.150901,28.1118602 C56.470435,27.8926757 56.7322019,27.6226563 56.9355417,27.3014718 C57.1378913,26.9802874 57.2398913,26.6039767 57.2398913,26.1732 C57.2398913,25.7123845 57.1596777,25.3383845 56.9999107,25.0508699 C56.8398136,24.7640155 56.5935612,24.5124816 56.2621437,24.2969282 C55.9297359,24.0817049 55.5068816,23.8905786 54.9912699,23.7245398 C54.4759883,23.5581709 53.8788427,23.3617631 53.1991728,23.1349864 C52.6452699,22.9686175 52.1356,22.7745204 51.6714835,22.5510447 C51.2063767,22.3282291 50.802668,22.0601903 50.459367,21.746268 C50.1154058,21.4330058 49.8463767,21.0530641 49.6512893,20.6067728 C49.4555417,20.1611417 49.3581631,19.628035 49.3581631,19.0084427 C49.3581631,18.2828893 49.5050563,17.6537243 49.7975223,17.1209476 C50.0903184,16.5881709 50.4828039,16.1422097 50.9746485,15.7830641 C51.4661631,15.4242485 52.026668,15.1522485 52.6548427,14.9670641 C53.2836777,14.7818796 53.9376,14.6891223 54.6166097,14.6891223 C55.4910369,14.6891223 56.2895417,14.8214913 57.0114641,15.085899 C57.7333864,15.3506369 58.3797165,15.8041903 58.9497942,16.4465592 L57.4508233,17.7161126 Z" id="Fill-32" fill="#007EB5" mask="url(#mask-2)"></path>
            <path d="M67.5130738,17.3532699 L67.4780835,17.3532699 L64.2576563,24.7220272 L70.5816563,24.7220272 L67.5130738,17.3532699 Z M66.6815592,15.0746097 L68.414899,15.0746097 L74.9851515,30.0504544 L72.8537146,30.0504544 L71.2725495,26.3774641 L63.5321029,26.3774641 L61.9509379,30.0504544 L59.8660447,30.0504544 L66.6815592,15.0746097 Z" id="Fill-33" fill="#007EB5" mask="url(#mask-2)"></path>
            <g id="Group-41" mask="url(#mask-2)">
                <g transform="translate(84.834951, 0.317883)">
                    <g id="Group-37">
                        <mask id="mask-4" fill="white">
                            <use xlink:href="#path-3"></use>
                        </mask>
                        <g id="Clip-36"></g>
                        <path d="M0.267378641,1.9835534 C-0.158116505,3.30394175 0.561495146,4.72368932 1.8818835,5.14918447 L1.8818835,5.14918447 C3.0372233,5.52582524 4.2618835,5.0207767 4.8392233,4.00704854 L4.8392233,4.00704854 L14.8778058,4.00704854 L31.6533398,28.2559806 C31.8943107,28.6095146 32.2838252,28.7940388 32.6796117,28.7940388 L32.6796117,28.7940388 C32.9242136,28.7940388 33.1717864,28.7247184 33.3893204,28.5728738 L33.3893204,28.5728738 C33.9541165,28.1800583 34.0960583,27.4043301 33.7032427,26.8398641 L33.7032427,26.8398641 L16.558,2.05287379 C16.3236311,1.71617476 15.9407184,1.51514563 15.5313981,1.51514563 L15.5313981,1.51514563 L4.83625243,1.51514563 C4.53916505,0.989961165 4.05392233,0.574038835 3.43664078,0.372679612 L3.43664078,0.372679612 C3.17553398,0.286854369 2.91475728,0.247242718 2.65761165,0.247242718 L2.65761165,0.247242718 C1.598,0.247242718 0.61431068,0.923941748 0.267378641,1.9835534" id="Fill-35" fill="url(#linearGradient-5)" mask="url(#mask-4)"></path>
                    </g>
                    <g id="Group-40">
                        <mask id="mask-8" fill="white">
                            <use xlink:href="#path-7"></use>
                        </mask>
                        <use id="Clip-39" fill="url(#linearGradient-6)" fill-rule="nonzero" xlink:href="#path-7"></use>
                        <path d="M27.5116777,40.8653262 C27.0828816,42.1847243 27.805134,43.6021612 29.1248621,44.0309573 C30.4445903,44.4600835 31.8620272,43.7378311 32.2904932,42.4181029 C32.7192893,41.0983748 31.9970369,39.6809379 30.6773087,39.2521417 C30.4195029,39.1682971 30.1577359,39.1283553 29.9005903,39.1283553 C28.8413087,39.1283553 27.8566291,39.8034039 27.5116777,40.8653262 L27.5116777,40.8653262 Z M25.9041049,9.01623883 C25.4753087,10.335967 26.1972311,11.7534039 27.5169592,12.1818699 C28.8366874,12.610666 30.2541243,11.8884136 30.6832505,10.5686854 C31.1117165,9.24928738 30.3894641,7.83185049 29.0697359,7.40305437 C28.8119301,7.31920971 28.5501631,7.27959794 28.2930175,7.27959794 C27.234066,7.27926796 26.2490563,7.9543165 25.9041049,9.01623883 L25.9041049,9.01623883 Z M18.0392117,17.7492874 C17.4730951,18.1414427 17.3321437,18.9188214 17.724299,19.4846078 L22.1063379,25.8099282 C22.3486291,26.1598311 22.7371534,26.3469961 23.1326097,26.3469961 C23.3775417,26.3469961 23.6251146,26.275035 23.8416583,26.1248408 C24.4081049,25.7326854 24.5487262,24.9556369 24.1565709,24.3895204 L19.774532,18.0642 C19.5322408,17.7149573 19.1433864,17.5274621 18.7482602,17.5274621 C18.5033282,17.5274621 18.2557553,17.5994233 18.0392117,17.7492874 L18.0392117,17.7492874 Z M27.584299,8.76668544 C27.0175223,9.15851068 26.8762408,9.93555922 27.2677359,10.5020058 L39.5493282,28.257268 C39.7823767,28.5942971 40.1659495,28.7949961 40.5752699,28.7949961 L47.2056,28.7949961 L44.692901,33.3503359 L22.4800078,33.343734 L10.036668,15.4462 C9.64352233,14.8807437 8.86647379,14.7411126 8.30068738,15.1342583 C7.73523107,15.5274039 7.5956,16.3044524 7.98874563,16.8699087 L20.8041049,35.3028602 C21.0368233,35.6379087 21.4194058,35.8379476 21.8274058,35.8379476 L45.4286874,35.8448796 L45.4290175,35.8448796 C45.8832311,35.8448796 46.3014641,35.5976369 46.5209786,35.2002 L50.4095223,28.1503165 C50.622765,27.7641029 50.615833,27.2940447 50.3916971,26.9141029 C50.1672311,26.5338311 49.758901,26.3011126 49.3175612,26.3011126 L41.2288621,26.3011126 L29.3192893,9.08291845 C29.0769981,8.73301553 28.6881437,8.54519029 28.2926874,8.54519029 C28.0480854,8.54519029 27.8008427,8.61715146 27.584299,8.76668544 L27.584299,8.76668544 Z M-3.25370097,8.54552039 C-3.71781748,8.54552039 -4.14331262,8.80299612 -4.35820583,9.21396699 C-4.57375922,9.62493786 -4.54306019,10.1214039 -4.27865243,10.5029961 L17.7860272,42.3382194 C18.0187456,42.6745883 18.4016583,42.8749573 18.8109786,42.8749573 L28.9528816,42.8749573 C29.6414641,42.8749573 30.1999883,42.316433 30.1999883,41.6278505 C30.1999883,40.939268 29.6414641,40.3807437 28.9528816,40.3807437 L19.4639107,40.3807437 L-0.872050485,11.0394039 L12.4978718,11.0394039 C13.1864544,11.0394039 13.7449786,10.4812097 13.7449786,9.79262718 C13.7449786,9.10404466 13.1864544,8.54552039 12.4978718,8.54552039 L-3.25370097,8.54552039 Z" id="Fill-38" fill="#606060" mask="url(#mask-8)"></path>
                    </g>
                </g>
            </g>
            <g id="Group-44" mask="url(#mask-2)">
                <g transform="translate(80.213592, 7.580019)">
                    <mask id="mask-10" fill="white">
                        <use xlink:href="#path-9"></use>
                    </mask>
                    <g id="Clip-43" stroke="none" fill="none"></g>
                    <path d="M30.5253981,1.75413592 C30.0966019,3.07386408 30.8185243,4.49130097 32.1382524,4.91976699 L32.1382524,4.91976699 C32.4683495,5.02704854 32.8050485,5.06203883 33.1301942,5.03431068 L33.1301942,5.03431068 L44.1706214,20.995165 C44.404,21.3321942 44.7875728,21.5328932 45.1965631,21.5328932 L45.1965631,21.5328932 L51.8268932,21.5328932 L49.3141942,26.088233 L27.1016311,26.0816311 L14.6579612,8.18409709 C14.2648155,7.61864078 13.487767,7.47900971 12.9219806,7.87215534 L12.9219806,7.87215534 C12.3565243,8.26530097 12.2168932,9.04234951 12.6100388,9.60780583 L12.6100388,9.60780583 L25.4253981,28.0407573 C25.6581165,28.3758058 26.0410291,28.5758447 26.448699,28.5758447 L26.448699,28.5758447 L50.0499806,28.5827767 L50.0503107,28.5827767 C50.5045243,28.5827767 50.9227573,28.335534 51.1422718,27.9380971 L51.1422718,27.9380971 L55.0308155,20.8882136 C55.2440583,20.502 55.2371262,20.0319417 55.0129903,19.652 L55.0129903,19.652 C54.7885243,19.2717282 54.3801942,19.0386796 53.9388544,19.0386796 L53.9388544,19.0386796 L45.8501553,19.0386796 L35.1817476,3.6148932 C35.2286214,3.51619417 35.2698835,3.41353398 35.3045437,3.30658252 L35.3045437,3.30658252 C35.7330097,1.98718447 35.0107573,0.569747573 33.6910291,0.140951456 L33.6910291,0.140951456 C33.4332233,0.0571067961 33.1714563,0.0174950246 32.9143107,0.0174950246 L32.9143107,0.0174950246 C31.8553592,0.0171650485 30.8703495,0.692213592 30.5253981,1.75413592 L30.5253981,1.75413592 Z M1.36792233,1.28341748 C0.903475728,1.28341748 0.477980583,1.5408932 0.263087379,1.95186408 C0.0475339806,2.36283495 0.0785631068,2.85930097 0.342970874,3.2408932 L22.4076505,35.0761165 C22.6400388,35.4124854 23.0229515,35.6128544 23.4326019,35.6128544 L32.3336699,35.6128544 C32.6320777,36.1423301 33.1222718,36.5661748 33.7461553,36.7688544 C35.0658835,37.1979806 36.4836505,36.4757282 36.9117864,35.1556699 C37.3405825,33.8362718 36.6183301,32.418835 35.2986019,31.9900388 C35.0407961,31.9061942 34.7790291,31.8662524 34.5218835,31.8662524 C33.6345825,31.8662524 32.7991068,32.3399417 32.3485243,33.1186408 L24.0852039,33.1186408 L3.74924272,3.77730097 L17.1194951,3.77730097 C17.8077476,3.77730097 18.3662718,3.2187767 18.3662718,2.53052427 C18.3662718,1.84194175 17.8077476,1.28341748 17.1194951,1.28341748 L1.36792233,1.28341748 Z M22.6605049,10.4871845 C22.0943883,10.8793398 21.9534369,11.6567184 22.3455922,12.2225049 L22.3455922,12.2225049 L26.7276311,18.5478252 C26.9699223,18.8977282 27.3584466,19.0848932 27.7539029,19.0848932 L27.7539029,19.0848932 C27.998835,19.0848932 28.2464078,19.012932 28.4629515,18.8627379 L28.4629515,18.8627379 C29.0297282,18.4705825 29.1700194,17.693534 28.7778641,17.1274175 L28.7778641,17.1274175 L24.3958252,10.8020971 C24.153534,10.4528544 23.7646796,10.2653592 23.3695534,10.2653592 L23.3695534,10.2653592 C23.1246214,10.2653592 22.8773786,10.3373204 22.6605049,10.4871845 L22.6605049,10.4871845 Z" id="Fill-42" stroke="none" fill="url(#linearGradient-11)" fill-rule="nonzero" mask="url(#mask-10)"></path>
                </g>
            </g>
        </g>
    </g>
</svg>